<svg xmlns="http://www.w3.org/2000/svg" width="48" height="48" viewBox="0 0 48 48">
  <g fill="none" fill-rule="evenodd">
    <rect width="48" height="48"/>
    <path stroke="#CCC" stroke-width="3" d="M26.8067985,10.042214 L26.8067143,10.0421995 L26.8067985,10.042214 Z M26.8067985,10.042214 L26.8068827,10.0422284 C26.8069405,10.0422383 26.8069405,10.0422383 26.8070284,10.0422533 C26.8071462,10.0422734 26.8071462,10.0422734 26.8070761,10.0422614 C26.806655,10.0421898 26.806655,10.0421898 26.8054916,10.041993 C26.8020614,10.0414147 26.8020614,10.0414147 26.7957411,10.0403605 C26.7788442,10.0375631 26.7788442,10.0375631 26.7510188,10.0330609 C26.6796079,10.0216985 26.638441,10.0153263 26.569561,10.0051066 C26.3700575,9.97550632 26.1479669,9.94576195 25.9102106,9.91797607 C25.3334124,9.85056735 24.763439,9.80609361 24.2412684,9.79510826 C24.1590547,9.79337866 24.078588,9.79250364 24,9.79250364 C23.4213937,9.79250364 22.7866616,9.83908991 22.1496565,9.91701627 C21.766079,9.96394023 21.4716379,10.0102532 21.3144942,10.0390909 L20.6412216,10.1626445 L20.1067048,9.73503108 C16.0987719,6.52868476 11.6106633,9.56606423 11.6106633,16.2709152 L11.6106633,16.7250786 L11.3587388,17.1029655 C5.73690983,25.5357089 12.7538507,38.5 24,38.5 C35.2573048,38.5 42.3297979,25.5250733 36.7150593,17.1029655 L36.4631348,16.7250786 L36.4631348,16.2709152 C36.4631348,9.56192074 32.001294,6.53157916 27.9969791,9.73503108 L27.470693,10.15606 L26.8067985,10.042214 Z"/>
    <path stroke="#CCC" stroke-width="3" d="M34.8730712,10.8570963 C33.8348556,9.35274167 32.4892874,8.54359054 31.0727177,8.50140543 C31.0366271,8.50043938 31.0158598,8.50020539 30.9507976,8.5 C29.9206974,8.5 28.9153693,8.9051482 28.0201886,9.69907006 L27.4691341,10.1877918 L26.7454739,10.0505838 C25.8433405,9.87953665 24.9260658,9.79250364 24,9.79250364 C23.0945166,9.79250364 22.1976604,9.87548142 21.316982,10.0386322 L20.5993148,10.1715843 L20.0518113,9.6889224 C19.1588643,8.90172839 18.1575446,8.5 17.1323149,8.5 C17.0858882,8.5 17.0523498,8.50045295 17.0147565,8.50177522 C15.593744,8.54371658 14.2490103,9.35251594 13.2109134,10.856898 C12.2059688,12.3147346 11.6355297,14.2329632 11.6105527,16.2891349 L11.60578,16.6820319 L11.4089984,17.0221316 C10.1640508,19.1737876 9.5,21.6105737 9.5,24.1463732 C9.5,32.0704687 15.9889234,38.5 24,38.5 C32.0112336,38.5 38.5,32.0705562 38.5,24.1463732 C38.5,21.6631672 37.8625352,19.2745384 36.6648212,17.1534082 L36.4712605,16.8106157 L36.4709785,16.4169505 C36.4694706,14.3125074 35.8984137,12.3452321 34.8730712,10.8570963 Z M34.8730712,10.8570963 C34.8729805,10.8569647 34.8728897,10.856833 34.872799,10.8567013 L34.8733437,10.8574912 C34.8732529,10.8573596 34.873162,10.857228 34.8730712,10.8570963 Z"/>
  </g>
</svg>
