<svg xmlns="http://www.w3.org/2000/svg" width="48" height="48" viewBox="0 0 48 48">
  <g fill="none" fill-rule="evenodd">
    <rect width="48" height="48"/>
    <path stroke="#F80" stroke-width="3" d="M26.8069702,10.0422434 C26.8066453,10.0421882 26.8065489,10.0421719 26.8054916,10.041993 C26.8020614,10.0414147 26.8020614,10.0414147 26.7957411,10.0403605 C26.7788442,10.0375631 26.7788442,10.0375631 26.7510188,10.0330609 C26.6796079,10.0216985 26.638441,10.0153263 26.569561,10.0051066 C26.3700575,9.97550632 26.1479669,9.94576195 25.9102106,9.91797607 C25.3334124,9.85056735 24.763439,9.80609361 24.2412684,9.79510826 C24.1590547,9.79337866 24.078588,9.79250364 24,9.79250364 C23.4213937,9.79250364 22.7866616,9.83908991 22.1496565,9.91701627 C21.766079,9.96394023 21.4716379,10.0102532 21.3144942,10.0390909 L20.6412216,10.1626445 L20.1067048,9.73503108 C16.0987719,6.52868476 11.6106633,9.56606423 11.6106633,16.2709152 L11.6106633,16.7250786 L11.3587388,17.1029655 C5.73690983,25.5357089 12.7538507,38.5 24,38.5 C35.2573048,38.5 42.3297979,25.5250733 36.7150593,17.1029655 L36.4631348,16.7250786 L36.4631348,16.2709152 C36.4631348,9.56192074 32.001294,6.53157916 27.9969791,9.73503108 L27.470693,10.15606 L26.8069702,10.0422434 Z"/>
  </g>
</svg>
